<svg width="32" height="32" viewBox="0 0 32 32" fill="none" xmlns="http://www.w3.org/2000/svg">
<g id="carbon:link">
<path id="Vector" d="M29.25 6.76C28.6926 6.20064 28.0302 5.75682 27.3009 5.45399C26.5716 5.15116 25.7897 4.99527 25 4.99527C24.2103 4.99527 23.4284 5.15116 22.6991 5.45399C21.9698 5.75682 21.3074 6.20064 20.75 6.76L22.17 8.18C22.5423 7.8077 22.9843 7.51238 23.4707 7.31089C23.9572 7.10941 24.4785 7.00571 25.005 7.00571C25.5315 7.00571 26.0529 7.10941 26.5393 7.31089C27.0257 7.51238 27.4677 7.8077 27.84 8.18C28.2123 8.5523 28.5076 8.99428 28.7091 9.48071C28.9106 9.96714 29.0143 10.4885 29.0143 11.015C29.0143 11.5415 28.9106 12.0629 28.7091 12.5493C28.5076 13.0357 28.2123 13.4777 27.84 13.85L19.84 21.85C19.0895 22.6019 18.071 23.0248 17.0086 23.0258C15.9462 23.0267 14.9269 22.6056 14.175 21.855C13.4231 21.1044 13.0002 20.0859 12.9993 19.0235C12.9983 17.9611 13.4195 16.9419 14.17 16.19L15.58 14.77L14.17 13.35L12.75 14.77C12.1907 15.3274 11.7468 15.9898 11.444 16.7191C11.1412 17.4484 10.9853 18.2303 10.9853 19.02C10.9853 19.8097 11.1412 20.5916 11.444 21.3209C11.7468 22.0502 12.1907 22.7126 12.75 23.27C13.8815 24.387 15.4101 25.0092 17 25C17.7927 25.0033 18.5782 24.8494 19.3112 24.5473C20.0441 24.2452 20.7098 23.8009 21.27 23.24L29.27 15.24C30.391 14.1124 31.0185 12.5859 31.0147 10.9959C31.011 9.40586 30.3763 7.88235 29.25 6.76Z" fill="#00ABD7"/>
<path id="Vector_2" d="M4.18997 24.8201C3.81656 24.4484 3.52026 24.0066 3.31807 23.5201C3.11589 23.0336 3.01181 22.5119 3.01181 21.9851C3.01181 21.4582 3.11589 20.9365 3.31807 20.45C3.52026 19.9635 3.81656 19.5217 4.18997 19.1501L12.19 11.1501C12.5616 10.7767 13.0034 10.4804 13.4899 10.2782C13.9765 10.076 14.4981 9.97191 15.025 9.97191C15.5518 9.97191 16.0735 10.076 16.56 10.2782C17.0465 10.4804 17.4883 10.7767 17.86 11.1501C18.231 11.5247 18.5231 11.9699 18.7189 12.4595C18.9147 12.949 19.0103 13.4729 19 14.0001C19.003 14.5289 18.9012 15.053 18.7004 15.5422C18.4995 16.0314 18.2037 16.4759 17.83 16.8501L15.71 19.0001L17.13 20.4201L19.25 18.3001C20.3785 17.1716 21.0124 15.641 21.0124 14.0451C21.0124 12.4491 20.3785 10.9186 19.25 9.79007C18.1215 8.66157 16.5909 8.02759 14.995 8.02759C13.399 8.02759 11.8685 8.66157 10.74 9.79007L2.73997 17.7901C2.17911 18.3477 1.73401 19.0106 1.43029 19.7409C1.12657 20.4711 0.970215 21.2542 0.970215 22.0451C0.970215 22.8359 1.12657 23.619 1.43029 24.3493C1.73401 25.0795 2.17911 25.7425 2.73997 26.3001C3.87879 27.4085 5.41087 28.0199 6.99997 28.0001C8.60307 28.0016 10.1417 27.3689 11.28 26.2401L9.85997 24.8201C9.4883 25.1935 9.04652 25.4898 8.56 25.692C8.07349 25.8941 7.55182 25.9982 7.02497 25.9982C6.49812 25.9982 5.97645 25.8941 5.48994 25.692C5.00342 25.4898 4.56164 25.1935 4.18997 24.8201Z" fill="#00ABD7"/>
</g>
</svg>